<svg width="31" height="55" viewBox="0 0 31 55" fill="none" xmlns="http://www.w3.org/2000/svg">
<path d="M31 16.0417C30.9999 12.5103 29.8173 9.07767 27.6357 6.27609C25.4541 3.47451 22.3953 1.46056 18.9337 0.546602C15.4722 -0.367361 11.8013 -0.130267 8.49044 1.22111C5.17957 2.57249 2.41372 4.96264 0.62185 8.02086C0.00581521 9.07376 -0.160689 10.3246 0.158942 11.4985C0.478574 12.6723 1.25818 13.673 2.32636 14.2806C3.39454 14.8882 4.66385 15.0529 5.85523 14.7386C7.04662 14.4242 8.06256 13.6565 8.67969 12.6042C9.2929 11.56 10.1737 10.6929 11.2339 10.0896C12.2941 9.48636 13.4965 9.16809 14.7208 9.16669C16.5712 9.16669 18.3457 9.89102 19.6541 11.1803C20.9625 12.4696 21.6976 14.2183 21.6976 16.0417C21.6976 17.8651 20.9625 19.6137 19.6541 20.903C18.3457 22.1924 16.5712 22.9167 14.7208 22.9167H14.7095C14.4107 22.9462 14.1157 23.0056 13.8291 23.0941C13.5157 23.1261 13.2063 23.1885 12.9053 23.2804C12.6492 23.4175 12.407 23.5784 12.182 23.7609C11.9149 23.9041 11.6625 24.0726 11.4285 24.264C11.2193 24.5099 11.0369 24.7767 10.884 25.0601C10.7146 25.2668 10.5641 25.4879 10.4343 25.7209C10.3333 26.0368 10.2665 26.3623 10.235 26.6921C10.1541 26.9556 10.0987 27.2262 10.0696 27.5V32.0833L10.0804 32.1354L10.0855 34.3862C10.0887 35.5998 10.5801 36.7626 11.452 37.6197C12.3239 38.4767 13.5052 38.9582 14.7367 38.9583H14.7481C15.9816 38.9553 17.1634 38.4696 18.0335 37.6079C18.9037 36.7463 19.3909 35.5794 19.3879 34.3638L19.3808 31.3325C22.7276 30.3521 25.6649 28.3355 27.7577 25.5814C29.8505 22.8274 30.9874 19.4823 31 16.0417ZM11.4527 47.1625C10.7996 47.8008 10.3533 48.6155 10.17 49.5037C9.98681 50.3918 10.0749 51.3136 10.4233 52.1525C10.7716 52.9913 11.3645 53.7096 12.127 54.2164C12.8895 54.7233 13.7874 54.9959 14.7072 55C15.9407 54.9901 17.1234 54.5143 18.0116 53.6708C18.8749 52.8013 19.3584 51.6333 19.3584 50.4169C19.3584 49.2004 18.8749 48.0323 18.0116 47.1629C17.1212 46.3452 15.9494 45.8905 14.7322 45.8904C13.5151 45.8903 12.3432 46.3449 11.4527 47.1625Z" fill="#6563FF"/>
</svg>
